<?xml version="1.0" standalone="no"?>
<!DOCTYPE svg PUBLIC "-//W3C//DTD SVG 20010904//EN"
 "http://www.w3.org/TR/2001/REC-SVG-20010904/DTD/svg10.dtd">
<svg version="1.0" xmlns="http://www.w3.org/2000/svg"
 width="700.000000pt" height="700.000000pt" viewBox="0 0 700.000000 700.000000"
 preserveAspectRatio="xMidYMid meet">
<metadata>
Created by potrace 1.14, written by Peter Selinger 2001-2017
</metadata>
<g transform="translate(0.000000,700.000000) scale(0.100000,-0.100000)"
fill="#000000" stroke="none">
<path d="M2 4813 l3 -2188 1090 0 1090 0 2 2188 1 2187 -1094 0 -1094 0 2
-2187z"/>
<path d="M2626 5913 c1 -599 2 -1091 3 -1095 0 -3 984 -6 2186 -6 l2185 0 0
1094 0 1094 -2188 0 -2187 0 1 -1087z"/>
<path d="M4815 4370 c-2 -3 -3 -987 -3 -2187 l-1 -2183 1095 0 1094 0 -2 2187
-3 2188 -1088 0 c-599 0 -1090 -2 -1092 -5z"/>
<path d="M0 1094 l0 -1094 2188 0 2187 0 -1 1087 c-1 599 -2 1091 -3 1095 0 3
-984 6 -2186 6 l-2185 1 0 -1095z"/>
</g>
</svg>
